HIERARCHY
ROOT Hips
{
	OFFSET 0.00000 0.00000 0.00000
	CHANNELS 6 Xposition Yposition Zposition Zrotation Yrotation Xrotation 
	JOINT LHipJoint
	{
		OFFSET 0 0 0
		CHANNELS 3 Zrotation Yrotation Xrotation
		JOINT LeftHip
		{
			OFFSET 1.58895 -1.83665 0.71753
			CHANNELS 3 Zrotation Yrotation Xrotation
			JOINT LeftKnee
			{
				OFFSET 2.50528 -6.88321 0.00000
				CHANNELS 3 Zrotation Yrotation Xrotation
				JOINT LeftAnkle
				{
					OFFSET 2.63244 -7.23257 0.00000
					CHANNELS 3 Zrotation Yrotation Xrotation
					JOINT LeftToe
					{
						OFFSET 0.23691 -0.65090 1.72750
						CHANNELS 3 Zrotation Yrotation Xrotation
						End Site
						{
							OFFSET 0.00000 -0.00000 0.92561
						}
					}
				}
			}
		}
	}
	JOINT RHipJoint
	{
		OFFSET 0 0 0
		CHANNELS 3 Zrotation Yrotation Xrotation
		JOINT RightHip
		{
			OFFSET -1.51435 -1.83665 0.71753
			CHANNELS 3 Zrotation Yrotation Xrotation
			JOINT RightKnee
			{
				OFFSET -2.54551 -6.99375 0.00000
				CHANNELS 3 Zrotation Yrotation Xrotation
				JOINT RightAnkle
				{
					OFFSET -2.66027 -7.30903 0.00000
					CHANNELS 3 Zrotation Yrotation Xrotation
					JOINT RightToe
					{
						OFFSET -0.22981 -0.63138 2.03959
						CHANNELS 3 Zrotation Yrotation Xrotation
						End Site
						{
							OFFSET -0.00000 -0.00000 1.07060
						}
					}
				}
			}
		}
	}
	JOINT lowerback
	{
		OFFSET 0 0 0
		CHANNELS 3 Zrotation Yrotation Xrotation
		JOINT Chest
		{
			OFFSET -0.02651 1.86275 -0.11152
			CHANNELS 3 Zrotation Yrotation Xrotation
			JOINT Chest2
			{
				OFFSET 0.01019 1.86224 0.04087
				CHANNELS 3 Zrotation Yrotation Xrotation
				JOINT lowerneck
				{
					OFFSET 0 0 0
					CHANNELS 3 Zrotation Yrotation Xrotation
					JOINT Neck
					{
						OFFSET -0.01926 1.80512 0.08867
						CHANNELS 3 Zrotation Yrotation Xrotation
						JOINT Head
						{
							OFFSET 0.05516 1.76451 -0.38475
							CHANNELS 3 Zrotation Yrotation Xrotation
							End Site
							{
								OFFSET 0.01592 1.82587 -0.14001
							}
						}
					}
				}
				JOINT LeftCollar
				{
					OFFSET 0 0 0
					CHANNELS 3 Zrotation Yrotation Xrotation
					JOINT LeftShoulder
					{
						OFFSET 3.47116 1.51376 0.14491
CHANNELS 3 Zrotation Xrotation Yrotation
						JOINT LeftElbow
						{
OFFSET 0 -4.780950 0.000000
CHANNELS 3 Zrotation Xrotation Yrotation
							JOINT LeftWrist
							{
OFFSET 0 -3.586150 -0.000000
CHANNELS 3 Zrotation Xrotation Yrotation
								JOINT lhand
								{
									OFFSET 0 0 0
CHANNELS 3 Zrotation Xrotation Yrotation
									JOINT LFingers
									{
OFFSET 0 -0.659810 0.000000
CHANNELS 3 Zrotation Xrotation Yrotation
										End Site
										{
OFFSET 0 -0.531960 0.000000
										}
									}
								}
								JOINT LThumb
								{
OFFSET 0 0.000000 0.000000
CHANNELS 3 Zrotation Xrotation Yrotation
									End Site
									{
OFFSET 0 -0.540080 0.540080
									}
								}
							}
						}
					}
				}
				JOINT RightCollar
				{
					OFFSET 0 0 0
					CHANNELS 3 Zrotation Yrotation Xrotation
					JOINT RightShoulder
					{
						OFFSET -3.31725 1.61216 0.35156
CHANNELS 3 Zrotation Xrotation Yrotation
						JOINT RightElbow
						{
OFFSET 0 -4.489130 0.000000
CHANNELS 3 Zrotation Xrotation Yrotation
							JOINT RightWrist
							{
OFFSET 0 -3.705100 0.000000
CHANNELS 3 Zrotation Xrotation Yrotation
								JOINT rhand
								{
									OFFSET 0 0 0
CHANNELS 3 Zrotation Xrotation Yrotation
									JOINT RFingers
									{
OFFSET 0 -0.449140 0.000000
CHANNELS 3 Zrotation Xrotation Yrotation
										End Site
										{
OFFSET 0 -0.362110 0.000000
										}
									}
								}
								JOINT RThumb
								{
OFFSET 0 0.000000 0.000000
CHANNELS 3 Zrotation Xrotation Yrotation
									End Site
									{
OFFSET 0 -0.367630 0.367630
									}
								}
							}
						}
					}
				}
			}
		}
	}
}
MOTION
Frames: 4
Frame Time: 0.008333333333333333
-0.671110 18.797850 5.352050 -0.585681 7.292863 4.985851 0.000000 0.000000 0.000000 -12.630122 -12.170789 -8.044831 1.392540 7.465779 21.102748 1.044320 4.313460 -21.315455 8.387158 -16.396769 -53.945344 0.000000 0.000000 0.000000 0.000000 0.000000 0.000000 0.000000 0.000000 0.000000 0.000000 0.000000 0.000000 0.000000 0.000000 0.000000 5.935369 4.484034 8.261949 2.599380 6.508395 2.309094 -1.227086 3.230047 -1.857959 -8.587864 -9.583886 -9.380146 5.380146 -12.690343 17.485562 1.863963 -6.136947 7.837224 0.000000 0.000000 0.000000 3.496344 -6.555977 -67.781472 118.796886 -56.622076 84.656003 16.479125 -78.725329 12.143322 0.000000 0.000000 0.000000 -7.125000 0.000000 0.000000 -7.469166 17.398297 -4.936438 0.000000 0.000000 0.000000 -36.801923 -58.491041 2.635660 -23.625058 -34.765268 -7.491689 -17.931861 -16.258756 62.994227 0.000000 0.000000 0.000000 7.125000 0.000000 0.000000 98.541553 -77.322684 111.597260
-0.671350 18.798300 5.353432 -0.643688 7.386162 5.059907 0.000000 0.000000 0.000000 -12.527050 -12.111035 -8.175643 1.390289 7.459927 21.085310 1.040838 4.182729 -21.209923 8.376388 -16.389208 -53.907391 0.000000 0.000000 0.000000 0.000000 0.000000 0.000000 0.000000 0.000000 0.000000 0.000000 0.000000 0.000000 0.000000 0.000000 0.000000 6.118924 4.442567 8.318169 2.660734 6.472867 2.335049 -1.264559 3.212434 -1.850843 -8.518245 -9.558656 -9.475995 5.334971 -12.655311 17.579046 1.837139 -6.116396 7.874653 0.000000 0.000000 0.000000 3.476181 -6.591338 -67.739000 118.931050 -56.588070 84.768017 16.509032 -78.789274 12.155352 0.000000 0.000000 0.000000 -7.125000 0.000000 0.000000 -7.448409 17.383658 -4.924860 0.000000 0.000000 0.000000 -36.833477 -58.545383 2.572899 -23.607019 -34.745908 -7.481393 -17.721210 -16.388549 62.870430 0.000000 0.000000 0.000000 7.125000 0.000000 0.000000 97.807412 -77.307297 110.887535
-0.671399 18.798350 5.357854 -0.584406 7.477304 5.127650 0.000000 0.000000 0.000000 -12.570547 -12.137456 -8.232317 1.387198 7.451995 21.061584 1.038450 4.117937 -21.151440 8.371147 -16.385548 -53.888639 0.000000 0.000000 0.000000 0.000000 0.000000 0.000000 0.000000 0.000000 0.000000 0.000000 0.000000 0.000000 0.000000 0.000000 0.000000 6.173688 4.423348 8.326443 2.663021 6.451744 2.346598 -1.290272 3.202347 -1.838846 -8.567023 -9.547642 -9.457984 5.461091 -12.661659 17.653117 1.884035 -6.110649 7.908352 0.000000 0.000000 0.000000 3.544715 -6.588901 -67.770653 119.051965 -56.557296 84.868963 16.494472 -78.816991 12.158601 0.000000 0.000000 0.000000 -7.125000 0.000000 0.000000 -7.458419 17.381451 -4.932013 0.000000 0.000000 0.000000 -36.887678 -58.474599 2.555397 -23.622402 -34.762356 -7.490180 -17.966359 -16.203841 62.659808 0.000000 0.000000 0.000000 7.125000 0.000000 0.000000 97.287645 -77.434199 110.232983
-0.670259 18.799171 5.363536 -0.483306 7.519186 5.192578 0.000000 0.000000 0.000000 -12.675519 -12.188640 -8.251345 1.383546 7.442660 21.033579 1.037459 4.127569 -21.147684 8.368359 -16.383639 -53.878995 0.000000 0.000000 0.000000 0.000000 0.000000 0.000000 0.000000 0.000000 0.000000 0.000000 0.000000 0.000000 0.000000 0.000000 0.000000 6.172390 4.424004 8.329713 2.636315 6.452958 2.329082 -1.318284 3.202132 -1.855722 -8.548316 -9.527094 -9.357208 5.523183 -12.655862 17.652982 1.906944 -6.103279 7.892832 0.000000 0.000000 0.000000 3.593697 -6.587296 -67.843008 118.969778 -56.578279 84.800353 16.415326 -78.788852 12.194108 0.000000 0.000000 0.000000 -7.125000 0.000000 0.000000 -7.513543 17.350768 -4.974197 0.000000 0.000000 0.000000 -36.855248 -58.292577 2.608822 -23.767219 -34.916992 -7.572928 -18.474539 -15.938596 62.745975 0.000000 0.000000 0.000000 7.125000 0.000000 0.000000 98.253374 -77.537404 111.076222
